HIERARCHY
ROOT Hips
{
 OFFSET 0.000000 0.000000 0.000000
 CHANNELS 6 Xposition Yposition Zposition Yrotation Xrotation Zrotation
 JOINT Chest
 {
  OFFSET 0.000000 9.585900 0.002600
  CHANNELS 3 Yrotation Xrotation Zrotation
  JOINT Chest2
  {
   OFFSET 0.000000 9.601200 -0.005300
   CHANNELS 3 Yrotation Xrotation Zrotation
   JOINT Chest3
   {
    OFFSET 0.000000 9.561800 0.000000
    CHANNELS 3 Yrotation Xrotation Zrotation
    JOINT Chest4
    {
     OFFSET 0.000000 9.552100 0.000000
     CHANNELS 3 Yrotation Xrotation Zrotation
     JOINT Neck
     {
      OFFSET 0.000000 14.453000 0.000000
      CHANNELS 3 Yrotation Xrotation Zrotation
      JOINT Head
      {
       OFFSET 0.000000 8.936500 -0.011300
       CHANNELS 3 Yrotation Xrotation Zrotation
       End Site
       {
        OFFSET 0.000000 17.073600 -0.006000
       }
      }
     }
     JOINT RightCollar
     {
      OFFSET -2.921100 9.558500 0.000000
      CHANNELS 3 Yrotation Xrotation Zrotation
      JOINT RightShoulder
      {
       OFFSET -13.519700 0.000000 0.000000
       CHANNELS 3 Yrotation Xrotation Zrotation
       JOINT RightElbow
       {
        OFFSET 0.000000 -29.696600 0.000000
        CHANNELS 3 Yrotation Xrotation Zrotation
        JOINT RightWrist
        {
         OFFSET 0.000000 -24.004700 0.000000
         CHANNELS 3 Yrotation Xrotation Zrotation
         End Site
         {
          OFFSET 0.000000 -17.728500 0.000000
         }
        }
       }
      }
     }
     JOINT LeftCollar
     {
      OFFSET 2.921100 9.558500 0.000000
      CHANNELS 3 Yrotation Xrotation Zrotation
      JOINT LeftShoulder
      {
       OFFSET 13.519700 0.000000 0.000000
       CHANNELS 3 Yrotation Xrotation Zrotation
       JOINT LeftElbow
       {
        OFFSET 0.000000 -29.696600 0.000000
        CHANNELS 3 Yrotation Xrotation Zrotation
        JOINT LeftWrist
        {
         OFFSET 0.000000 -24.004700 0.000000
         CHANNELS 3 Yrotation Xrotation Zrotation
         End Site
         {
          OFFSET 0.000000 -17.728500 0.000000
         }
        }
       }
      }
     }
    }
   }
  }
 }
 JOINT RightHip
 {
  OFFSET -7.771700 -0.012900 -0.001300
  CHANNELS 3 Yrotation Xrotation Zrotation
  JOINT RightKnee
  {
   OFFSET 0.000000 -40.869800 0.001200
   CHANNELS 3 Yrotation Xrotation Zrotation
   JOINT RightAnkle
   {
    OFFSET 0.000000 -39.717900 0.002100
    CHANNELS 3 Yrotation Xrotation Zrotation
    JOINT RightToe
    {
     OFFSET 0.000000 -4.965400 11.033500
     CHANNELS 3 Yrotation Xrotation Zrotation
     End Site
     {
      OFFSET 0.000000 -1.423100 5.872300
     }
    }
   }
  }
 }
 JOINT LeftHip
 {
  OFFSET 7.771700 -0.012900 -0.001300
  CHANNELS 3 Yrotation Xrotation Zrotation
  JOINT LeftKnee
  {
   OFFSET 0.000000 -40.869800 0.001200
   CHANNELS 3 Yrotation Xrotation Zrotation
   JOINT LeftAnkle
   {
    OFFSET 0.000000 -39.717900 0.002100
    CHANNELS 3 Yrotation Xrotation Zrotation
    JOINT LeftToe
    {
     OFFSET 0.000000 -4.965400 11.033500
     CHANNELS 3 Yrotation Xrotation Zrotation
     End Site
     {
      OFFSET 0.000000 -1.423100 5.872300
     }
    }
   }
  }
 }
}
MOTION
Frames: 9
Frame Time: 0.008333
-249.045896 57.194654 149.713019 176.169787 -33.969617 -2.022770 2.507457 19.178320 3.038866 0.237044 2.290554 0.347562 0.369524 3.794304 0.565776 1.937750 16.539164 2.715592 -1.650897 14.030747 -1.902011 -2.318507 -9.762408 -2.949781 5.663419 -3.221134 -1.440657 28.357329 -40.191815 -30.726771 -167.490043 -66.350447 -152.382690 24.071334 30.202328 24.799518 -6.680414 -3.396268 -2.795843 6.043941 -15.903267 -6.125383 58.943614 -30.252813 -97.048231 8.660273 -6.904352 -1.408907 9.566715 -41.822242 -5.854203 -8.873572 64.319374 -9.413798 3.963859 29.765199 1.978572 -1.304784 -18.175779 8.381542 -9.693863 -40.307730 5.456414 27.736299 68.228915 26.466976 -13.146283 8.688719 -2.784898 0.016179 0.273034 -0.001992
-249.045691 57.198028 149.712571 176.162791 -33.938624 -2.033545 2.495530 19.161978 3.038200 0.241485 2.289212 0.348089 0.341388 3.803685 0.557318 1.921305 16.533499 2.709891 -1.628114 13.991218 -1.918834 -2.320491 -9.822424 -2.980935 5.701527 -3.242029 -1.459277 28.359679 -40.182325 -30.748134 -167.510404 -66.304510 -152.381675 24.136971 30.208219 24.773205 -6.673770 -3.418820 -2.808077 6.004381 -15.938060 -6.089959 59.035673 -30.386669 -97.069926 8.630960 -6.917997 -1.337031 9.515642 -41.849882 -5.806796 -8.857941 64.307348 -9.433102 3.968908 29.751697 1.977578 -1.302803 -18.160923 8.382450 -9.707599 -40.334883 5.479007 27.734053 68.232148 26.468407 -13.137260 8.691429 -2.786231 0.015574 0.272022 -0.001195
-249.044469 57.202777 149.709751 176.156055 -33.923704 -2.049699 2.481105 19.161833 3.042379 0.215544 2.300915 0.339358 0.362542 3.788391 0.563682 1.906597 16.530406 2.705397 -1.627000 13.959874 -1.936942 -2.303531 -9.859436 -3.005808 5.735723 -3.250162 -1.470778 28.362756 -40.170581 -30.785231 -167.789188 -66.214244 -152.147593 24.079462 30.206915 24.745746 -6.683051 -3.440501 -2.818898 5.975221 -15.975977 -6.050461 59.119267 -30.522499 -97.091949 8.600551 -6.928794 -1.256717 9.487055 -41.862205 -5.769118 -8.865427 64.298605 -9.453641 3.975489 29.747781 1.982920 -1.305564 -18.156269 8.379392 -9.721951 -40.346059 5.505123 27.719088 68.243163 26.466629 -13.134908 8.691031 -2.800706 0.024958 0.267447 0.004101
-249.045766 57.206958 149.706921 176.157522 -33.905424 -2.055302 2.452182 19.159043 3.031459 0.213305 2.299249 0.338945 0.375952 3.781234 0.564959 1.872929 16.531306 2.700630 -1.623254 13.928482 -1.956339 -2.267881 -9.853659 -3.015046 5.774065 -3.254573 -1.486184 28.367302 -40.167051 -30.798699 -167.993606 -66.161775 -151.972908 24.075910 30.208336 24.723501 -6.687503 -3.457063 -2.828953 5.956720 -16.026665 -6.010924 59.190542 -30.666462 -97.112225 8.566900 -6.937906 -1.163054 9.469248 -41.875572 -5.754037 -8.928575 64.287813 -9.527649 4.010836 29.741707 1.995255 -1.306479 -18.151807 8.375699 -9.730277 -40.362206 5.508182 27.718155 68.244284 26.476464 -13.136479 8.696957 -2.811889 0.031489 0.262859 0.008067
-249.046211 57.209722 149.705730 176.156550 -33.874415 -2.064947 2.426155 19.142432 3.027803 0.226228 2.291974 0.340043 0.373895 3.780353 0.564069 1.841464 16.528902 2.699788 -1.619001 13.897207 -1.976827 -2.257549 -9.909576 -3.055877 5.772070 -3.265353 -1.521934 28.387969 -40.154686 -30.815697 -167.976056 -66.117661 -152.015962 24.134207 30.218252 24.700334 -6.746779 -3.481315 -2.843200 5.995813 -16.074414 -5.961255 59.260740 -30.829100 -97.135569 8.534121 -6.937793 -1.048199 9.452516 -41.904443 -5.739133 -8.949112 64.281594 -9.555791 4.027169 29.738289 1.999938 -1.308892 -18.148726 8.374611 -9.745304 -40.392559 5.523012 27.714334 68.247493 26.483097 -13.135548 8.704720 -2.823532 0.034722 0.257738 0.012259
-249.047026 57.212556 149.703720 176.153532 -33.847581 -2.070360 2.402264 19.129071 3.023452 0.237856 2.285441 0.339701 0.330072 3.786642 0.562437 1.876128 16.517554 2.698228 -1.634981 13.865599 -1.990463 -2.256070 -10.032485 -3.125243 5.783687 -3.266905 -1.534235 28.381269 -40.138910 -30.853146 -168.103276 -66.044411 -151.928058 24.121844 30.218560 24.673089 -6.749570 -3.486076 -2.849582 5.956574 -16.135601 -5.914650 59.338140 -31.019957 -97.167421 8.507192 -6.928837 -0.905299 9.442136 -41.929361 -5.729257 -8.953856 64.278828 -9.565780 4.024677 29.735294 1.998454 -1.312897 -18.145496 8.375330 -9.755547 -40.419808 5.530406 27.715490 68.250404 26.497180 -13.140988 8.718255 -2.831009 0.040621 0.246168 0.009612
-249.048233 57.215633 149.700557 176.154009 -33.827139 -2.074259 2.376837 19.121997 3.016985 0.232393 2.282424 0.339524 0.329093 3.784945 0.561883 1.883014 16.509626 2.696683 -1.649774 13.835913 -2.004306 -2.239978 -10.115155 -3.174737 5.794614 -3.268090 -1.547233 28.371881 -40.125428 -30.872220 -168.259020 -65.974097 -151.811577 24.107006 30.214651 24.645596 -6.786525 -3.498017 -2.855958 5.951719 -16.192705 -5.860508 59.422058 -31.233248 -97.208195 8.479940 -6.918176 -0.740115 9.436613 -41.947425 -5.726735 -8.936541 64.280984 -9.551023 4.009851 29.729621 1.994640 -1.305498 -18.143587 8.373349 -9.765264 -40.436532 5.531534 27.716843 68.249002 26.509474 -13.142482 8.720332 -2.841958 0.045350 0.242827 0.010678
-249.049063 57.218659 149.696706 176.155193 -33.810282 -2.079895 2.351871 19.118756 3.011673 0.204173 2.291583 0.338221 0.343641 3.773712 0.561753 1.872536 16.504651 2.694104 -1.632783 13.809462 -2.022763 -2.224012 -10.182888 -3.212477 5.819413 -3.269781 -1.571735 28.372560 -40.120741 -30.877971 -168.293472 -65.936153 -151.795609 24.150735 30.217888 24.604427 -6.796717 -3.515691 -2.869823 5.942049 -16.251129 -5.800259 59.518997 -31.450790 -97.261143 8.443395 -6.904366 -0.576611 9.429993 -41.961763 -5.721538 -8.918674 64.282788 -9.535885 3.998107 29.725552 1.990179 -1.301577 -18.143356 8.374533 -9.778987 -40.449772 5.536952 27.718142 68.250234 26.518083 -13.143102 8.721858 -2.850552 0.051765 0.239209 0.010777
-249.051484 57.221930 149.691413 176.151364 -33.801265 -2.072179 2.339979 19.116865 3.000264 0.190367 2.296115 0.338114 0.340165 3.771123 0.561907 1.821696 16.502525 2.692561 -1.570383 13.798649 -2.048765 -2.222698 -10.264254 -3.246787 5.879456 -3.269844 -1.608839 28.376145 -40.123930 -30.868194 -168.495501 -65.882923 -151.638741 24.135490 30.210558 24.567028 -6.760407 -3.533268 -2.893797 5.914087 -16.306699 -5.741856 59.632284 -31.658128 -97.328543 8.401489 -6.884763 -0.442706 9.433951 -41.966088 -5.728165 -8.908792 64.282664 -9.530568 3.995627 29.720832 1.990686 -1.299040 -18.142478 8.373915 -9.784947 -40.456596 5.516367 27.755644 68.246821 26.563473 -13.127633 8.723558 -2.848587 0.046501 0.237081 0.000974
